<svg xmlns="http://www.w3.org/2000/svg" width="15" height="18" viewBox="0 0 15 18">
  <defs>
    <style>
      .cls-1 {
        fill-rule: evenodd;
      }
    </style>
  </defs>
  <path id="Forma_1" data-name="Forma 1" class="cls-1" d="M14.929,15.176L13.64,13.032a6.362,6.362,0,0,1-.909-3.277V7.876A5.253,5.253,0,0,0,8.979,2.852V1.507a1.5,1.5,0,0,0-3,0V2.852A5.253,5.253,0,0,0,2.226,7.876V9.754a6.365,6.365,0,0,1-.909,3.276L0.029,15.175a0.376,0.376,0,0,0,.321.568H14.607A0.375,0.375,0,0,0,14.929,15.176ZM5.115,16.493a2.612,2.612,0,0,0,4.726,0H5.115Z"/>
</svg>
