<svg 
 xmlns="http://www.w3.org/2000/svg"
 xmlns:xlink="http://www.w3.org/1999/xlink"
 width="18px" height="18px">
<path fill-rule="evenodd"  fill="rgb(63, 63, 63)"
 d="M17.026,1.959 L9.964,9.022 L17.026,16.085 C17.284,16.342 17.284,16.761 17.026,17.020 C16.897,17.149 16.727,17.213 16.558,17.213 C16.389,17.213 16.219,17.149 16.090,17.020 L9.028,9.958 L1.966,17.020 C1.837,17.149 1.668,17.213 1.499,17.213 C1.329,17.213 1.160,17.149 1.031,17.020 C0.772,16.761 0.772,16.342 1.031,16.085 L8.093,9.022 L1.031,1.959 C0.772,1.702 0.772,1.282 1.031,1.025 C1.289,0.765 1.708,0.765 1.966,1.025 L9.028,8.087 L16.090,1.025 C16.348,0.765 16.767,0.765 17.026,1.025 C17.284,1.282 17.284,1.702 17.026,1.959 Z"/>
</svg>