<svg xmlns="http://www.w3.org/2000/svg" width="15" height="16" viewBox="0 0 15 16">
  <defs>
    <style>
      .cls-1 {
        fill-rule: evenodd;
      }
    </style>
  </defs>
  <path id="Forma_1" data-name="Forma 1" class="cls-1" d="M14.95,6.637a0.628,0.628,0,0,0-.136-0.2L12.939,4.56a0.625,0.625,0,1,0-.884.883l0.809,0.808H9.371a0.625,0.625,0,1,0,0,1.249h3.492l-0.808.808a0.625,0.625,0,0,0,.884.883l1.875-1.873a0.615,0.615,0,0,0,.136-0.2A0.624,0.624,0,0,0,14.95,6.637ZM10.622,8.749A0.625,0.625,0,0,0,10,9.374V12.5H7.5V2.5A0.625,0.625,0,0,0,7.05,1.9L4.879,1.254H10V4.377a0.625,0.625,0,0,0,1.25,0V0.629A0.625,0.625,0,0,0,10.622,0h-10A0.564,0.564,0,0,0,.554.017,0.618,0.618,0,0,0,.289.109C0.275,0.118.258,0.118,0.245,0.128S0.238,0.139.233,0.143a0.619,0.619,0,0,0-.166.2A0.5,0.5,0,0,0,.05.393,0.6,0.6,0,0,0,0,.539,0.39,0.39,0,0,0,0,.593C0,0.606-.007.617-0.007,0.629V13.121a0.624,0.624,0,0,0,.5.612l6.252,1.249A0.578,0.578,0,0,0,6.87,15,0.625,0.625,0,0,0,7.5,14.371V13.746h3.126a0.625,0.625,0,0,0,.625-0.625V9.374A0.625,0.625,0,0,0,10.622,8.749Z"/>
</svg>
