<svg xmlns="http://www.w3.org/2000/svg" width="17" height="17" viewBox="0 0 17 17">
  <defs>
    <style>
      .cls-1 {
        fill-rule: evenodd;
      }
    </style>
  </defs>
  <path id="Forma_1" data-name="Forma 1" class="cls-1" d="M4.181,3.723l6.465-1.764L10.3,1.268A0.911,0.911,0,0,0,9.084.856L3.3,3.723H4.181ZM12.653,2.01a0.91,0.91,0,0,0-.24.033l-1.519.415L6.256,3.723h7.559L13.531,2.682A0.909,0.909,0,0,0,12.653,2.01Zm2.111,2.35H1.3a0.912,0.912,0,0,0-.88.672,0.942,0.942,0,0,0-.033.238v10.14a0.911,0.911,0,0,0,.91.91H14.762a0.911,0.911,0,0,0,.911-0.91V12.872h-5.4a1.549,1.549,0,0,1-1.548-1.547V9.3a1.545,1.545,0,0,1,1.546-1.545h5.4V5.27A0.908,0.908,0,0,0,14.763,4.36Zm1.548,4.265a0.908,0.908,0,0,0-.319-0.189A0.929,0.929,0,0,0,15.7,8.386H10.269a0.911,0.911,0,0,0-.91.91v2.026a0.911,0.911,0,0,0,.91.91H15.7a0.927,0.927,0,0,0,.295-0.049,0.88,0.88,0,0,0,.319-0.189,0.906,0.906,0,0,0,.3-0.672V9.3A0.906,0.906,0,0,0,16.311,8.625ZM12.17,10.491a0.455,0.455,0,0,1-.455.455h-0.3a0.455,0.455,0,0,1-.455-0.455v-0.3a0.446,0.446,0,0,1,.175-0.357,0.46,0.46,0,0,1,.28-0.1h0.3a0.455,0.455,0,0,1,.455.455v0.3h0Z"/>
</svg>
