<svg xmlns="http://www.w3.org/2000/svg" width="17" height="17" viewBox="0 0 17 17">
  <defs>
    <style>
      .cls-1 {
        fill-rule: evenodd;
      }
    </style>
  </defs>
  <path id="Forma_1" data-name="Forma 1" class="cls-1" d="M16.643,7.933a0.534,0.534,0,0,0-.527-0.4,1.811,1.811,0,0,1-1.238-3.152,0.456,0.456,0,0,0,.05-0.618,8.112,8.112,0,0,0-1.3-1.312,0.456,0.456,0,0,0-.623.05,1.887,1.887,0,0,1-2.043.46A1.822,1.822,0,0,1,9.857,1.176,0.455,0.455,0,0,0,9.455.7a8.171,8.171,0,0,0-1.843,0,0.456,0.456,0,0,0-.406.469,1.825,1.825,0,0,1-1.122,1.75,1.892,1.892,0,0,1-2.028-.462A0.457,0.457,0,0,0,3.438,2.4,8.141,8.141,0,0,0,2.112,3.708a0.457,0.457,0,0,0,.049.623,1.819,1.819,0,0,1,.458,2.046A1.894,1.894,0,0,1,.837,7.487a0.446,0.446,0,0,0-.473.4,8.232,8.232,0,0,0,0,1.865,0.542,0.542,0,0,0,.537.4,1.8,1.8,0,0,1,1.686,1.124,1.825,1.825,0,0,1-.458,2.028,0.456,0.456,0,0,0-.05.618,8.134,8.134,0,0,0,1.3,1.313,0.455,0.455,0,0,0,.624-0.049,1.884,1.884,0,0,1,2.043-.46,1.819,1.819,0,0,1,1.108,1.78,0.455,0.455,0,0,0,.4.479,8.144,8.144,0,0,0,1.843,0,0.456,0.456,0,0,0,.406-0.47,1.823,1.823,0,0,1,1.121-1.749,1.889,1.889,0,0,1,2.029.462,0.458,0.458,0,0,0,.618.052,8.167,8.167,0,0,0,1.325-1.312,0.456,0.456,0,0,0-.049-0.623A1.812,1.812,0,0,1,16.059,10.2l0.1,0a0.456,0.456,0,0,0,.48-0.4A8.222,8.222,0,0,0,16.643,7.933ZM8.515,11.6a2.736,2.736,0,1,1,2.733-2.736A2.737,2.737,0,0,1,8.515,11.6Z"/>
</svg>
