<?xml version="1.0" standalone="no"?>
<!DOCTYPE svg PUBLIC "-//W3C//DTD SVG 1.1//EN" "http://www.w3.org/Graphics/SVG/1.1/DTD/svg11.dtd" >
<svg xmlns="http://www.w3.org/2000/svg">
<metadata>Generated by IcoMoon</metadata>
<defs>
<font id="icomoon" horiz-adv-x="1024">
<font-face units-per-em="1024" ascent="960" descent="-64" />
<missing-glyph horiz-adv-x="1024" />
<glyph unicode="&#x20;" horiz-adv-x="512" d="" />
<glyph unicode="&#xe900;" glyph-name="notification_dark" d="M934.628 96.654l-73.33 121.97c-33.832 56.303-51.706 120.747-51.712 186.427v106.894c-0.119 64.257-20.952 126.762-59.398 178.246-38.451 51.484-92.467 89.203-154.047 107.564v76.516c0 22.632-8.991 44.337-24.994 60.34s-37.708 24.994-60.34 24.994c-22.632 0-44.337-8.99-60.34-24.994s-24.994-37.708-24.994-60.34v-76.516c-61.588-18.35-115.62-56.066-154.080-107.55s-59.299-113.996-59.424-178.26v-106.837c-0.020-65.663-17.896-130.084-51.712-186.37l-73.273-122.027c-1.923-3.237-2.957-6.923-2.998-10.689s0.914-7.475 2.767-10.758c1.853-3.277 4.539-6.007 7.786-7.913 3.247-1.911 6.94-2.93 10.707-2.953h811.063c3.772 0.006 7.475 1.001 10.729 2.901 3.26 1.894 5.956 4.619 7.817 7.902 1.86 3.277 2.822 6.986 2.782 10.758-0.040 3.766-1.075 7.458-3.009 10.695v0zM376.322 21.732c12.011-25.498 31.028-47.058 54.831-62.157s51.41-23.12 79.598-23.12c28.188 0 55.795 8.021 79.597 23.12s42.82 36.659 54.831 62.157h-268.857z" />
<glyph unicode="&#xe901;" glyph-name="wallet_light_red" d="M1004 451.306h-12v272c0 42.532-33.366 77.406-75.296 79.85l-20.546 84.87c-6.222 25.694-32.188 41.538-57.876 35.314l-498.142-120.594c-1.322 0.354-2.706 0.56-4.14 0.56h-256c-44.112 0-80-35.888-80-80v-672c0-44.112 35.888-80 80-80h832c44.112 0 80 35.888 80 80v144h12c11.028 0 20 8.972 20 20v216c0 11.028-8.972 20-20 20zM960 723.306v-0.034c-8.024 6.038-17.218 10.59-27.172 13.276l-7.988 33c20.25-5.63 35.16-24.222 35.16-46.242zM80 771.306h130.272l-133.462-32.31c-0.084-0.016-0.164-0.042-0.246-0.060l-0.33-0.080c-0.042-0.010-0.084-0.026-0.126-0.038-0.46-0.114-0.91-0.248-1.354-0.4-0.080-0.028-0.156-0.058-0.234-0.086-0.41-0.15-0.812-0.312-1.208-0.494-0.112-0.052-0.22-0.106-0.33-0.158-0.348-0.17-0.69-0.35-1.022-0.544-0.138-0.080-0.274-0.164-0.41-0.25-0.294-0.184-0.584-0.376-0.866-0.578-0.15-0.108-0.296-0.218-0.442-0.33-0.26-0.2-0.512-0.406-0.758-0.622-0.144-0.126-0.284-0.254-0.422-0.384-0.238-0.224-0.468-0.452-0.692-0.688-0.126-0.132-0.248-0.268-0.368-0.406-0.222-0.252-0.438-0.512-0.644-0.778-0.104-0.132-0.204-0.268-0.302-0.402-0.206-0.284-0.402-0.574-0.59-0.87-0.084-0.132-0.164-0.266-0.244-0.402-0.182-0.306-0.352-0.618-0.512-0.936-0.072-0.144-0.14-0.288-0.208-0.432-0.146-0.314-0.282-0.63-0.408-0.954-0.066-0.17-0.128-0.342-0.188-0.514-0.104-0.3-0.202-0.602-0.29-0.912-0.062-0.216-0.116-0.436-0.168-0.656-0.064-0.268-0.124-0.536-0.174-0.808-0.052-0.276-0.090-0.556-0.128-0.834-0.030-0.228-0.058-0.454-0.078-0.684-0.028-0.324-0.042-0.652-0.050-0.98-0.004-0.132-0.020-0.262-0.020-0.396 0-0.076 0.010-0.148 0.012-0.224 0.004-0.318 0.024-0.636 0.048-0.958 0.018-0.234 0.034-0.468 0.060-0.7 0.032-0.266 0.076-0.532 0.122-0.8 0.048-0.28 0.096-0.56 0.158-0.836 0.020-0.086 0.028-0.172 0.048-0.258 0.038-0.152 0.092-0.296 0.132-0.446 0.076-0.282 0.156-0.562 0.248-0.838 0.084-0.252 0.176-0.498 0.272-0.742 0.090-0.232 0.18-0.46 0.282-0.686 0.126-0.284 0.262-0.56 0.402-0.834 0.088-0.17 0.176-0.342 0.27-0.508 0.174-0.31 0.358-0.61 0.55-0.906 0.080-0.122 0.16-0.244 0.242-0.364 0.22-0.318 0.452-0.626 0.694-0.926 0.072-0.090 0.146-0.182 0.222-0.27 0.26-0.308 0.53-0.606 0.812-0.894 0.074-0.076 0.148-0.152 0.226-0.226 0.29-0.284 0.588-0.556 0.898-0.816 0.084-0.070 0.168-0.14 0.254-0.21 0.31-0.25 0.628-0.49 0.958-0.716 0.096-0.068 0.194-0.134 0.292-0.198 0.33-0.218 0.668-0.422 1.012-0.616 0.104-0.058 0.208-0.114 0.312-0.17 0.356-0.188 0.72-0.362 1.090-0.524 0.098-0.042 0.196-0.086 0.296-0.126 0.394-0.164 0.794-0.308 1.202-0.44 0.078-0.024 0.156-0.050 0.234-0.074 0.446-0.136 0.896-0.252 1.354-0.348 0.044-0.008 0.086-0.020 0.13-0.028 0.5-0.102 1.006-0.178 1.516-0.232 0.010 0 0.020-0.002 0.030-0.004 0.532-0.054 1.068-0.082 1.61-0.082 0.004 0 0.010 0 0.014 0h0.040c0.2 0 0.396-0.008 0.596 0h751.364c8.836 0 16 7.164 16 16s-7.164 16-16 16h-617.87l631.68 152.92c8.546 2.074 17.178-3.2 19.246-11.744l34.178-141.18h-3.226c-8.836 0-16-7.164-16-16s7.164-16 16-16h15.992c1.61 0 3.202-0.084 4.772-0.238 0.62-0.116 1.25-0.192 1.886-0.234 23.326-3.252 41.342-23.32 41.342-47.528v-0.054c-13.38 10.068-30.004 16.044-48 16.044h-832c-26.468 0-48 21.534-48 48s21.534 48 48 48zM960 51.306c0-26.466-21.532-48-48-48h-832c-26.468 0-48 21.534-48 48v608.044c13.38-10.068 30.004-16.044 48-16.044h832c26.466 0 48-21.534 48-48v-144h-233.996c-12.132 0-22.004-9.872-22.004-22.004v-211.992c0-12.132 9.872-22.004 22.004-22.004h233.996v-144zM992 227.306h-256v192h239.768c0.078 0 0.154-0.012 0.232-0.012s0.154 0.010 0.232 0.012h15.768v-192zM864 339.306c-8.836 0-16-7.164-16-16 0-8.822-7.178-16-16-16s-16 7.178-16 16 7.178 16 16 16c8.836 0 16 7.164 16 16s-7.164 16-16 16c-26.468 0-48-21.534-48-48s21.532-48 48-48 48 21.534 48 48c0 8.836-7.164 16-16 16z" />
<glyph unicode="&#xe902;" glyph-name="enter_dark" d="M512.003 903.111c-138.686-2.977-270.539-62.335-366.557-165.016s-148.334-240.276-145.443-382.518c-0.443-125.757 40.441-248 116.054-347.004 11.332 95.716 100.762 176.725 226.236 215.37 21.826-22.938 47.858-41.227 76.599-53.817s59.625-19.223 90.875-19.53c31.25-0.307 62.252 5.723 91.22 17.749 28.974 12.021 55.336 29.798 77.585 52.309 126.498-42.012 214.016-127.431 216.883-227.135 83.365 101.228 128.922 229.552 128.546 362.057 2.896 142.242-49.425 279.837-145.442 382.518s-227.868 162.039-366.555 165.016v0zM512.003 215.262c-32.024 0.171-63.403 9.244-90.795 26.26-35.137 23.353-63.823 55.586-83.299 93.598-19.476 38.014-29.087 80.528-27.907 123.453-4.089 59.539 14.794 118.343 52.58 163.737s91.447 73.745 149.422 78.942c58.052-5.196 111.778-33.605 149.575-79.092s56.627-104.398 52.423-164.007c1.206-43.496-8.704-86.557-28.752-124.903-20.053-38.349-49.533-70.65-85.527-93.69-26.652-15.883-56.895-24.331-87.72-24.508v0.21z" />
<glyph unicode="&#xe903;" glyph-name="mail_dark" d="M393.734 415.004l-338.034-289.791c12.796-11.947 29.656-18.574 47.161-18.546h818.233c17.454-0.023 34.253 6.61 46.99 18.546l-337.863 289.791-118.215-103.538-118.272 103.538zM921.094 789.333h-818.233c-17.494 0.038-34.335-6.641-47.047-18.66l456.192-390.941 456.249 391.111c-12.794 11.943-29.662 18.556-47.161 18.489zM34.139 162.304l329.956 280.348-329.956 286.777v-567.125zM989.872 162.304v567.352l-329.956-287.004 329.956-280.348z" />
<glyph unicode="&#xe904;" glyph-name="wallet_dark" d="M251.844 735.744l389.421 106.255-20.841 41.623c-9.197 18.169-27.728 30.406-49.117 30.406-8.784 0-17.086-2.064-24.447-5.733l0.318 0.144-348.401-172.695h53.067zM762.157 838.927c-5.151-0.017-10.127-0.741-14.843-2.082l0.386 0.094-370.869-101.195h455.319l-17.107 62.705c-6.501 23.506-27.698 40.478-52.86 40.478-0.009 0-0.019 0-0.028 0h0.001zM889.314 697.374h-811.008c-0.003 0-0.006 0-0.009 0-25.196 0-46.43-16.963-52.906-40.092l-0.092-0.387c-1.213-4.286-1.936-9.216-1.988-14.306v-610.816c0.034-30.259 24.555-54.78 54.811-54.814h811.071c30.285 0 54.84 24.534 54.874 54.811v152.88h-325.271c-51.462 0.034-93.176 41.726-93.244 93.177v121.983c0 51.398 41.666 93.064 93.064 93.064 0.021 0 0.042 0 0.064 0h325.267v149.685c0 0.036 0 0.078 0 0.12 0 30.206-24.487 54.694-54.694 54.694 0 0 0 0 0 0v0zM982.558 440.471c-5.364 4.916-11.767 8.796-18.832 11.268l-0.384 0.117c-5.254 1.859-11.314 2.957-17.624 3.012h-327.163c-30.259-0.034-54.78-24.555-54.814-54.811v-122.040c0.034-30.259 24.555-54.78 54.811-54.814h327.141c6.365 0.017 12.472 1.096 18.162 3.070l-0.392-0.118c7.462 2.538 13.874 6.426 19.249 11.415l-0.034-0.031c11.093 10.011 18.043 24.43 18.071 40.473v121.801c-0.022 16.14-7.047 30.635-18.199 40.613l-0.052 0.046zM733.064 328.072c0-15.137-12.271-27.407-27.407-27.407v0h-18.071c-15.137 0-27.407 12.271-27.407 27.407v0 18.071c0 0.050-0.001 0.108-0.001 0.167 0 8.669 4.106 16.379 10.479 21.291l0.063 0.046c4.589 3.676 10.455 5.931 16.845 6.023h18.092c15.137 0 27.407-12.271 27.407-27.407v0-18.071z" />
<glyph unicode="&#xe905;" glyph-name="plus_dark" d="M853.32 517.486c-63.375 0-124.155 25.623-168.97 71.232-44.81 45.608-69.985 107.467-69.985 171.968 0 7.908 1.562 15.377 2.284 23.090-34.401 7.609-69.509 11.451-104.716 11.458-138.624-3.018-270.401-61.926-366.372-163.778s-148.287-238.317-145.45-379.403c-0.168-102.441 27.432-202.947 79.763-290.452h52.461c22.266 39.895 52.41 74.665 88.531 102.113 36.122 27.453 77.438 46.996 121.347 57.39 21.828-22.764 47.861-40.914 76.603-53.412 28.743-12.493 59.628-19.082 90.88-19.384 31.253-0.307 62.255 5.673 91.229 17.603s55.347 29.568 77.599 51.901c41.994-10.977 81.377-30.474 115.789-57.318 34.412-26.839 63.14-60.477 84.47-98.893h65.249c51.625 86.656 79.171 185.943 79.703 287.278 0.532 101.34-25.969 200.922-76.677 288.133-29.624-12.899-61.517-19.542-93.737-19.526v0zM599.675 136.893c-27.126-16.2-58.061-24.586-89.51-24.274-31.447 0.312-62.219 9.313-89.030 26.045-35.116 23.158-63.791 55.117-83.271 92.805-19.48 37.693-29.11 79.846-27.966 122.419-4.199 59.156 14.639 117.624 52.443 162.764s91.54 73.331 149.598 78.482c58.056-5.158 111.79-33.351 149.591-78.49 37.806-45.138 56.648-103.601 52.454-162.757 1.213-43.177-8.704-85.924-28.754-123.996-20.055-38.067-49.551-70.129-85.555-93v0zM870.441 778.113v156.287h-51.313v-156.287h-153.938v-52.225h153.943v-156.677h51.313v156.677h153.554v52.225h-153.559z" />
<glyph unicode="&#xe906;" glyph-name="ruble" d="M541.142 395.804c148.743 0 269.754 126.562 269.754 282.128 0 155.534-121.011 282.068-269.754 282.068h-260.547v-657.287h-67.491v-69.818h67.491v-296.895h69.818v296.895h237.277v69.818h-237.277v93.091h190.729zM350.413 890.182h190.732c110.245 0 199.936-95.213 199.936-212.25 0-117.069-89.691-212.31-199.936-212.31h-190.732v424.56z" />
<glyph unicode="&#xe908;" glyph-name="wallet_red" d="M251.844 735.744l389.421 106.255-20.841 41.623c-9.197 18.169-27.728 30.406-49.117 30.406-8.784 0-17.086-2.064-24.447-5.733l0.318 0.144-348.401-172.695h53.067zM762.157 838.927c-5.151-0.017-10.127-0.741-14.843-2.082l0.386 0.094-370.869-101.195h455.319l-17.107 62.705c-6.501 23.506-27.698 40.478-52.86 40.478-0.009 0-0.019 0-0.028 0h0.001zM889.314 697.374h-811.008c-0.003 0-0.006 0-0.009 0-25.196 0-46.43-16.963-52.906-40.092l-0.092-0.387c-1.213-4.286-1.936-9.216-1.988-14.306v-610.816c0.034-30.259 24.555-54.78 54.811-54.814h811.071c30.285 0 54.84 24.534 54.874 54.811v152.88h-325.271c-51.462 0.034-93.176 41.726-93.244 93.177v121.983c0 51.398 41.666 93.064 93.064 93.064 0.021 0 0.042 0 0.064 0h325.267v149.685c0 0.036 0 0.078 0 0.12 0 30.206-24.487 54.694-54.694 54.694 0 0 0 0 0 0v0zM982.558 440.471c-5.364 4.916-11.767 8.796-18.832 11.268l-0.384 0.117c-5.254 1.859-11.314 2.957-17.624 3.012h-327.163c-30.259-0.034-54.78-24.555-54.814-54.811v-122.040c0.034-30.259 24.555-54.78 54.811-54.814h327.141c6.365 0.017 12.472 1.096 18.162 3.070l-0.392-0.118c7.462 2.538 13.874 6.426 19.249 11.415l-0.034-0.031c11.093 10.011 18.043 24.43 18.071 40.473v121.801c-0.022 16.14-7.047 30.635-18.199 40.613l-0.052 0.046zM733.064 328.072c0-15.137-12.271-27.407-27.407-27.407v0h-18.071c-15.137 0-27.407 12.271-27.407 27.407v0 18.071c0 0.050-0.001 0.108-0.001 0.167 0 8.669 4.106 16.379 10.479 21.291l0.063 0.046c4.589 3.676 10.455 5.931 16.845 6.023h18.092c15.137 0 27.407-12.271 27.407-27.407v0-18.071z" />
<glyph unicode="&#xe909;" glyph-name="star_red" horiz-adv-x="1097" d="M574.464 944.786l139.557-323.584 357.23-30.062c14.372-0.997 25.654-12.901 25.654-27.44 0-8.351-3.722-15.833-9.599-20.877l-0.037-0.031-270.629-230.034 81.189-342.162c0.405-1.785 0.637-3.834 0.637-5.938 0-15.472-12.542-28.014-28.014-28.014-5.403 0-10.448 1.529-14.727 4.179l0.12-0.069-307.2 181.394-307.2-181.394c-4.159-2.58-9.204-4.11-14.607-4.11-15.472 0-28.014 12.542-28.014 28.014 0 2.104 0.232 4.153 0.672 6.125l-0.035-0.187 81.189 342.162-270.848 230.327c-5.772 5.067-9.395 12.46-9.395 20.7 0 14.48 11.19 26.346 25.394 27.422l0.093 0.006 357.23 30.062 139.483 323.511c4.532 10.007 14.432 16.844 25.929 16.844s21.397-6.836 25.857-16.666l0.072-0.178z" />
<glyph unicode="&#xe90a;" glyph-name="star_dark" d="M536.166 911.667l130.253-302.012 333.414-28.058c13.414-0.931 23.943-12.041 23.943-25.61 0-7.795-3.474-14.778-8.959-19.485l-0.034-0.029-252.587-214.699 75.776-319.351c0.378-1.666 0.594-3.579 0.594-5.542 0-14.44-11.706-26.146-26.146-26.146-5.042 0-9.751 1.427-13.745 3.9l0.112-0.065-286.72 169.301-286.72-169.301c-3.882-2.408-8.591-3.836-13.633-3.836-14.44 0-26.146 11.706-26.146 26.146 0 1.964 0.216 3.877 0.627 5.716l-0.033-0.174 75.776 319.351-252.791 214.972c-5.387 4.729-8.769 11.63-8.769 19.32 0 13.514 10.444 24.589 23.701 25.594l0.086 0.005 333.414 28.058 130.185 301.943c4.23 9.34 13.47 15.721 24.201 15.721s19.97-6.381 24.133-15.555l0.068-0.166z" />
<glyph unicode="&#xe90b;" glyph-name="bag_red" horiz-adv-x="1182" d="M740.431 255.803c-0.349-23.437-19.256-42.344-42.66-42.693h-213.813c-23.504 0.262-42.499 19.202-42.85 42.66v106.765h-448.354v-320.354c-0.005-0.391-0.008-0.852-0.008-1.314 0-29.079 12.075-55.339 31.484-74.037l0.032-0.031c18.742-19.442 45.012-31.517 74.102-31.517 0.478 0 0.955 0.003 1.431 0.010l-0.072-0.001h982.252c58.936 0.134 106.677 47.875 106.811 106.798v320.446h-448.354v-106.732zM505.305 362.535h170.929v-85.386h-170.929v85.386zM1157.435 758.351c-18.742 19.442-45.012 31.517-74.102 31.517-0.478 0-0.955-0.003-1.431-0.010l0.072 0.001h-234.89v106.654c0.006 0.311 0.009 0.678 0.009 1.045 0 17.383-7.182 33.089-18.741 44.311l-0.015 0.015c-11.23 11.528-26.905 18.678-44.25 18.678-0.394 0-0.787-0.004-1.18-0.011l0.059 0.001h-384.394c-0.324 0.006-0.705 0.010-1.088 0.010-17.355 0-33.040-7.15-44.271-18.665l-0.012-0.013c-11.528-11.23-18.678-26.905-18.678-44.25 0-0.394 0.004-0.787 0.011-1.18l-0.001 0.059v-106.811h-234.969c-0.404 0.006-0.881 0.009-1.359 0.009-29.090 0-55.36-12.075-74.072-31.485l-0.030-0.031c-19.441-18.729-31.516-44.988-31.516-74.068 0-0.462 0.003-0.923 0.009-1.384l-0.001 0.070v-256.158h1196.19v256.315c0.007 0.435 0.010 0.949 0.010 1.464 0 29.003-12.012 55.201-31.332 73.891l-0.028 0.027zM761.62 789.858h-341.701v85.307h341.701v-85.465z" />
<glyph unicode="&#xe90c;" glyph-name="bag_dark" d="M641.707 281.429c-0.303-20.312-16.689-36.698-36.972-37h-185.305c-20.37 0.227-36.833 16.641-37.137 36.972v92.53h-388.574v-277.641c-0.005-0.339-0.007-0.738-0.007-1.139 0-25.202 10.465-47.96 27.286-64.166l0.028-0.027c16.243-16.85 39.010-27.314 64.222-27.314 0.414 0 0.828 0.003 1.24 0.008l-0.063-0.001h851.285c51.078 0.116 92.453 41.492 92.57 92.558v277.72h-388.574v-92.501zM437.931 373.931h148.139v-74.001h-148.139v74.001zM1003.11 716.971c-16.243 16.85-39.010 27.314-64.222 27.314-0.414 0-0.828-0.003-1.24-0.008l0.063 0.001h-203.571v92.433c0.005 0.27 0.008 0.587 0.008 0.906 0 15.065-6.225 28.677-16.242 38.403l-0.013 0.013c-9.733 9.991-23.318 16.188-38.35 16.188-0.342 0-0.682-0.003-1.022-0.010l0.051 0.001h-333.141c-0.281 0.005-0.611 0.008-0.943 0.008-15.041 0-28.635-6.197-38.368-16.176l-0.011-0.011c-9.991-9.733-16.188-23.318-16.188-38.35 0-0.342 0.003-0.682 0.010-1.022l-0.001 0.051v-92.57h-203.639c-0.35 0.005-0.764 0.008-1.178 0.008-25.212 0-47.979-10.465-64.196-27.287l-0.026-0.027c-16.849-16.232-27.314-38.99-27.314-64.192 0-0.4 0.003-0.8 0.008-1.199l-0.001 0.060v-222.003h1036.698v222.14c0.006 0.377 0.009 0.823 0.009 1.269 0 25.136-10.41 47.841-27.155 64.038l-0.025 0.024zM660.070 744.277h-296.141v73.933h296.141v-74.069z" />
<glyph unicode="&#xe90d;" glyph-name="settings_red" d="M1002.496 482.153c-3.707 13.971-16.24 24.1-31.138 24.1-0.213 0-0.426-0.002-0.638-0.006h0.032c-0.376-0.005-0.82-0.007-1.264-0.007-60.247 0-109.086 48.84-109.086 109.086 0 31.983 13.764 60.751 35.691 80.704l0.088 0.079c5.476 5.038 8.896 12.238 8.896 20.237 0 6.44-2.216 12.362-5.927 17.045l0.044-0.057c-23.366 29.529-49.069 55.461-77.373 78.3l-0.933 0.729c-4.657 3.752-10.645 6.022-17.163 6.022-8.065 0-15.318-3.476-20.343-9.011l-0.020-0.023c-20.743-21.746-49.943-35.268-82.301-35.268-14.657 0-28.667 2.774-41.531 7.826l0.772-0.267c-39.575 17.165-66.755 55.897-66.755 100.977 0 2.302 0.071 4.587 0.211 6.854l-0.015-0.311c0.024 0.432 0.038 0.938 0.038 1.447 0 14.025-10.535 25.59-24.123 27.212l-0.13 0.013c-16.658 1.999-35.949 3.14-55.507 3.14s-38.849-1.141-57.81-3.359l2.303 0.219c-13.826-1.561-24.472-13.189-24.472-27.303 0-0.333 0.006-0.665 0.018-0.995l-0.001 0.048c0.045-1.174 0.070-2.552 0.070-3.936 0-45.456-27.589-84.467-66.935-101.204l-0.719-0.272c-11.862-4.575-25.588-7.225-39.932-7.225-32.295 0-61.452 13.433-82.189 35.015l-0.036 0.038c-5.060 5.61-12.354 9.121-20.469 9.121-6.334 0-12.169-2.139-16.82-5.735l0.064 0.047c-29.863-23.497-56.072-49.362-79.15-77.867l-0.722-0.921c-3.754-4.665-6.026-10.661-6.026-17.188 0-8.046 3.452-15.286 8.956-20.319l0.021-0.019c22.139-20.123 35.982-49.035 35.982-81.181 0-15.178-3.086-29.635-8.665-42.778l0.271 0.718c-18.392-39.797-57.967-66.914-103.877-66.914-1.218 0-2.431 0.019-3.639 0.057l0.177-0.004c-0.527 0.037-1.143 0.058-1.764 0.058-13.882 0-25.304-10.529-26.718-24.036l-0.010-0.116c-2.032-16.857-3.192-36.378-3.192-56.169s1.16-39.312 3.414-58.498l-0.223 2.328c3.887-14 16.518-24.105 31.51-24.105 0.294 0 0.587 0.004 0.879 0.012l-0.043-0.001c0.317 0.003 0.692 0.005 1.068 0.005 45.206 0 83.951-27.666 100.225-66.99l0.264-0.719c5.062-12.184 8.002-26.336 8.002-41.175 0-32.008-13.68-60.821-35.512-80.912l-0.078-0.071c-5.476-5.038-8.896-12.238-8.896-20.237 0-6.44 2.216-12.362 5.927-17.045l-0.044 0.057c23.374-29.546 49.077-55.497 77.377-78.362l0.929-0.727c4.666-3.798 10.682-6.098 17.236-6.098 8.064 0 15.315 3.483 20.33 9.026l0.021 0.024c20.716 21.763 49.904 35.299 82.254 35.299 14.676 0 28.702-2.786 41.577-7.858l-0.77 0.267c39.659-17.072 66.921-55.816 66.921-100.928 0-2.213-0.066-4.411-0.195-6.591l0.014 0.3c-0.031-0.49-0.049-1.063-0.049-1.641 0-13.986 10.476-25.526 24.010-27.199l0.133-0.013c16.658-2.006 35.949-3.15 55.507-3.15s38.848 1.145 57.808 3.37l-2.302-0.22c13.827 1.56 24.474 13.188 24.474 27.304 0 0.354-0.007 0.707-0.020 1.057l0.002-0.051c-0.046 1.187-0.072 2.581-0.072 3.981 0 45.412 27.566 84.385 66.878 101.1l0.718 0.271c11.887 4.604 25.644 7.272 40.024 7.272 32.293 0 61.444-13.453 82.155-35.060l0.038-0.040c5.059-5.493 12.287-8.923 20.315-8.923 6.4 0 12.291 2.179 16.971 5.836l-0.061-0.046c29.83 23.573 56.021 49.515 79.079 78.090l0.733 0.938c3.767 4.662 6.048 10.662 6.048 17.195 0 8.048-3.462 15.288-8.977 20.312l-0.022 0.020c-21.685 20.010-35.219 48.573-35.219 80.298 0 59.956 48.342 108.62 108.175 109.142h6.073c0.492-0.032 1.068-0.049 1.647-0.049 13.998 0 25.551 10.472 27.252 24.009l0.014 0.135c2.116 17.194 3.324 37.098 3.324 57.284 0 19.44-1.12 38.618-3.299 57.474l0.216-2.298zM512.904 261.271c-0.054 0-0.117 0-0.181 0-91.019 0-164.804 73.785-164.804 164.804s73.785 164.804 164.804 164.804c91.019 0 164.804-73.785 164.804-164.804v0c-0.034-90.941-73.696-164.667-164.61-164.804h-0.013z" />
<glyph unicode="&#xe90e;" glyph-name="settings_dark" d="M1002.496 482.153c-3.707 13.971-16.24 24.1-31.138 24.1-0.213 0-0.426-0.002-0.638-0.006h0.032c-0.376-0.005-0.82-0.007-1.264-0.007-60.247 0-109.086 48.84-109.086 109.086 0 31.983 13.764 60.751 35.691 80.704l0.088 0.079c5.476 5.038 8.896 12.238 8.896 20.237 0 6.44-2.216 12.362-5.927 17.045l0.044-0.057c-23.366 29.529-49.069 55.461-77.373 78.3l-0.933 0.729c-4.657 3.752-10.645 6.022-17.163 6.022-8.065 0-15.318-3.476-20.343-9.011l-0.020-0.023c-20.743-21.746-49.943-35.268-82.301-35.268-14.657 0-28.667 2.774-41.531 7.826l0.772-0.267c-39.575 17.165-66.755 55.897-66.755 100.977 0 2.302 0.071 4.587 0.211 6.854l-0.015-0.311c0.024 0.432 0.038 0.938 0.038 1.447 0 14.025-10.535 25.59-24.123 27.212l-0.13 0.013c-16.658 1.999-35.949 3.14-55.507 3.14s-38.849-1.141-57.81-3.359l2.303 0.219c-13.826-1.561-24.472-13.189-24.472-27.303 0-0.333 0.006-0.665 0.018-0.995l-0.001 0.048c0.045-1.174 0.070-2.552 0.070-3.936 0-45.456-27.589-84.467-66.935-101.204l-0.719-0.272c-11.862-4.575-25.588-7.225-39.932-7.225-32.295 0-61.452 13.433-82.189 35.015l-0.036 0.038c-5.060 5.61-12.354 9.121-20.469 9.121-6.334 0-12.169-2.139-16.82-5.735l0.064 0.047c-29.863-23.497-56.072-49.362-79.15-77.867l-0.722-0.921c-3.754-4.665-6.026-10.661-6.026-17.188 0-8.046 3.452-15.286 8.956-20.319l0.021-0.019c22.139-20.123 35.982-49.035 35.982-81.181 0-15.178-3.086-29.635-8.665-42.778l0.271 0.718c-18.392-39.797-57.967-66.914-103.877-66.914-1.218 0-2.431 0.019-3.639 0.057l0.177-0.004c-0.527 0.037-1.143 0.058-1.764 0.058-13.882 0-25.304-10.529-26.718-24.036l-0.010-0.116c-2.032-16.857-3.192-36.378-3.192-56.169s1.16-39.312 3.414-58.498l-0.223 2.328c3.887-14 16.518-24.105 31.51-24.105 0.294 0 0.587 0.004 0.879 0.012l-0.043-0.001c0.317 0.003 0.692 0.005 1.068 0.005 45.206 0 83.951-27.666 100.225-66.99l0.264-0.719c5.062-12.184 8.002-26.336 8.002-41.175 0-32.008-13.68-60.821-35.512-80.912l-0.078-0.071c-5.476-5.038-8.896-12.238-8.896-20.237 0-6.44 2.216-12.362 5.927-17.045l-0.044 0.057c23.374-29.546 49.077-55.497 77.377-78.362l0.929-0.727c4.666-3.798 10.682-6.098 17.236-6.098 8.064 0 15.315 3.483 20.33 9.026l0.021 0.024c20.716 21.763 49.904 35.299 82.254 35.299 14.676 0 28.702-2.786 41.577-7.858l-0.77 0.267c39.659-17.072 66.921-55.816 66.921-100.928 0-2.213-0.066-4.411-0.195-6.591l0.014 0.3c-0.031-0.49-0.049-1.063-0.049-1.641 0-13.986 10.476-25.526 24.010-27.199l0.133-0.013c16.658-2.006 35.949-3.15 55.507-3.15s38.848 1.145 57.808 3.37l-2.302-0.22c13.827 1.56 24.474 13.188 24.474 27.304 0 0.354-0.007 0.707-0.020 1.057l0.002-0.051c-0.046 1.187-0.072 2.581-0.072 3.981 0 45.412 27.566 84.385 66.878 101.1l0.718 0.271c11.887 4.604 25.644 7.272 40.024 7.272 32.293 0 61.444-13.453 82.155-35.060l0.038-0.040c5.059-5.493 12.287-8.923 20.315-8.923 6.4 0 12.291 2.179 16.971 5.836l-0.061-0.046c29.83 23.573 56.021 49.515 79.079 78.090l0.733 0.938c3.767 4.662 6.048 10.662 6.048 17.195 0 8.048-3.462 15.288-8.977 20.312l-0.022 0.020c-21.685 20.010-35.219 48.573-35.219 80.298 0 59.956 48.342 108.62 108.175 109.142h6.073c0.492-0.032 1.068-0.049 1.647-0.049 13.998 0 25.551 10.472 27.252 24.009l0.014 0.135c2.116 17.194 3.324 37.098 3.324 57.284 0 19.44-1.12 38.618-3.299 57.474l0.216-2.298zM512.904 261.271c-0.054 0-0.117 0-0.181 0-91.019 0-164.804 73.785-164.804 164.804s73.785 164.804 164.804 164.804c91.019 0 164.804-73.785 164.804-164.804v0c-0.034-90.941-73.696-164.667-164.61-164.804h-0.013z" />
<glyph unicode="&#xe90f;" glyph-name="add_red" horiz-adv-x="1088" d="M512 913.152c-256.896 0-465.152-208.256-465.152-465.152s208.256-465.152 465.152-465.152c256.896 0 465.152 208.256 465.152 465.152v0c-0.762 256.589-208.562 464.39-465.078 465.152h-0.074zM744.576 401.536h-186.048v-186.048h-93.056v185.984h-186.048v93.056h186.048v186.048h93.056v-186.048h186.048v-93.056z" />
<glyph unicode="&#xe910;" glyph-name="add_dark" d="M481.882 885.79c-241.785 0-437.79-196.005-437.79-437.79s196.005-437.79 437.79-437.79c241.785 0 437.79 196.005 437.79 437.79v0c-0.717 241.496-196.294 437.073-437.721 437.79h-0.069zM700.777 404.269h-175.104v-175.104h-87.582v175.044h-175.104v87.582h175.104v175.104h87.582v-175.104h175.104v-87.582z" />
<glyph unicode="&#xe911;" glyph-name="plus_red" horiz-adv-x="1097" d="M932.411 795.487v164.513h-54.974v-164.513h-164.915v-54.974h164.923v-164.923h54.974v164.923h164.506v54.974zM914.066 521.143c-141.385 0-256 114.615-256 256v0c0 8.324 1.675 16.187 2.45 24.305-33.715 7.659-72.435 12.053-112.18 12.061h-0.006c-304.32-6.717-548.447-255.002-548.447-560.307 0-4.032 0.043-8.053 0.127-12.065l-0.010 0.599c-0.001-0.29-0.001-0.633-0.001-0.976 0-112.684 31.796-217.941 86.905-307.289l-1.451 2.529h56.203c48.21 83.75 127.874 144.801 222.467 167.419l2.382 0.481c46.194-47.306 110.609-76.642 181.875-76.642 69.547 0 132.569 27.938 178.455 73.203l-0.028-0.028c92.585-24.329 168.313-83.711 213.653-162.75l0.89-1.683h69.903c53.628 87.092 85.397 192.612 85.397 305.553 0 110.724-30.535 214.316-83.644 302.815l1.486-2.672c-29.576-12.992-64.052-20.553-100.295-20.553-0.046 0-0.092 0-0.138 0h0.007zM642.333 120.517c-26.934-16.063-59.4-25.56-94.083-25.56-35.958 0-69.533 10.207-97.984 27.883l0.791-0.458c-72.224 47.314-119.269 127.864-119.269 219.402 0 2.515 0.036 5.021 0.106 7.518l-0.008-0.367c-0.394 5.126-0.618 11.101-0.618 17.129 0 124.018 94.971 225.855 216.154 236.75l0.916 0.066c122.104-10.977 217.074-112.823 217.074-236.85 0-6.016-0.223-11.979-0.662-17.883l0.047 0.788c0.068-2.214 0.106-4.818 0.106-7.432 0-92.763-48.486-174.201-121.498-220.354l-1.071-0.632z" />
<glyph unicode="&#xe912;" glyph-name="mail_red" horiz-adv-x="1365" d="M505.344 398.507l-507.136-434.688c18.415-17.235 43.241-27.819 70.538-27.819 0.071 0 0.143 0 0.214 0h1227.424c0.034 0 0.075 0 0.116 0 27.244 0 52.015 10.586 70.424 27.87l-0.055-0.051-506.795 434.688-177.408-155.307zM1296.384 960h-1227.435c-0.043 0-0.093 0-0.144 0-27.277 0-52.073-10.621-70.479-27.953l0.052 0.049 684.288-586.496 684.373 586.667c-18.38 17.183-43.148 27.734-70.38 27.734-0.097 0-0.194 0-0.291 0h0.015zM-34.133 19.456l494.933 420.523-494.933 430.165v-850.688zM1399.467 19.456v850.944l-494.933-430.421z" />
<glyph unicode="&#xe913;" glyph-name="ves_red" horiz-adv-x="1260" d="M717.273 22.646h-78.297v733.263h329.886l-139.579-226.619c-2.285-3.69-3.639-8.166-3.639-12.958 0-8.782 4.548-16.502 11.417-20.933l0.098-0.059c3.621-2.371 8.057-3.781 12.822-3.781 0.006 0 0.012 0 0.019 0h-0.001c8.512 0.090 15.935 4.666 20.027 11.472l0.060 0.107 121.305 196.923 121.305-196.923c4.179-7.037 11.74-11.679 20.386-11.679 4.779 0 9.227 1.419 12.945 3.858l-0.090-0.055c6.967 4.49 11.516 12.21 11.516 20.992 0 4.792-1.354 9.267-3.7 13.065l0.062-0.107-140.209 226.698h1.733c21.055 0 38.124 17.069 38.124 38.124s-17.069 38.124-38.124 38.124v0h-274.905c-15.395 22.991-37.798 40.243-64.118 48.829l-0.867 0.245c-3.396 44.092-40.008 78.583-84.677 78.583s-81.281-34.491-84.659-78.293l-0.018-0.29c-27.243-8.702-49.726-25.854-64.946-48.327l-0.275-0.431h-274.747c-21.055 0-38.124-17.069-38.124-38.124s17.069-38.124 38.124-38.124h1.812l-139.894-226.934c-2.285-3.69-3.639-8.166-3.639-12.958 0-8.782 4.548-16.502 11.417-20.933l0.098-0.059c3.621-2.371 8.057-3.781 12.822-3.781 0.006 0 0.012 0 0.019 0h-0.001c8.481 0.119 15.87 4.687 19.948 11.472l0.060 0.107 121.305 196.923 121.305-196.923c4.179-7.037 11.74-11.679 20.386-11.679 4.779 0 9.227 1.419 12.945 3.858l-0.090-0.055c6.967 4.49 11.516 12.21 11.516 20.992 0 4.792-1.354 9.267-3.7 13.065l0.062-0.107-139.815 226.698h329.886v-733.263h-78.375c-47.012-0.532-84.917-38.766-84.917-85.853 0-0.279 0.001-0.557 0.004-0.835v0.043h422.912c0.002 0.236 0.004 0.514 0.004 0.793 0 47.087-37.905 85.321-84.867 85.853h-0.050zM367.38 465.408h-354.462c-7.144-0.045-12.918-5.846-12.918-12.997 0-0.028 0-0.056 0-0.083v0.004c-0.005-0.519-0.008-1.132-0.008-1.746 0-105.434 84.827-191.056 189.957-192.34l0.121-0.001c105.285 1.241 190.157 86.88 190.157 192.342 0 0.614-0.003 1.227-0.009 1.839l0.001-0.094c0 0.024 0 0.052 0 0.080 0 7.123-5.73 12.907-12.831 12.996h-0.008zM1168.699 465.408h-354.462c-7.11-0.089-12.84-5.873-12.84-12.996 0-0.028 0-0.056 0-0.084v0.004c-0.025-1.152-0.039-2.509-0.039-3.87 0-105.016 85.133-190.149 190.149-190.149s190.149 85.133 190.149 190.149c0 1.361-0.014 2.718-0.043 4.072l0.003-0.202c0 0.023 0 0.051 0 0.079 0 7.15-5.774 12.952-12.914 12.997h-0.004z" />
<glyph unicode="&#xe914;" glyph-name="ves_dark" d="M582.784 102.4h-63.616v595.776h268.032l-113.408-184.128c-1.856-2.999-2.956-6.635-2.956-10.528 0-7.135 3.695-13.408 9.277-17.008l0.080-0.048c2.942-1.926 6.546-3.072 10.418-3.072 0.005 0 0.010 0 0.015 0h-0.001c6.916 0.073 12.947 3.791 16.272 9.321l0.048 0.087 98.56 160 98.56-160c3.396-5.717 9.539-9.489 16.563-9.489 3.883 0 7.497 1.153 10.518 3.134l-0.073-0.045c5.661 3.648 9.356 9.92 9.356 17.056 0 3.893-1.1 7.53-3.006 10.615l0.050-0.087-113.92 184.192h1.408c17.108 0 30.976 13.868 30.976 30.976s-13.868 30.976-30.976 30.976v0h-223.36c-12.508 18.68-30.711 32.698-52.096 39.673l-0.704 0.199c-2.759 35.825-32.507 63.848-68.8 63.848s-66.041-28.024-68.785-63.613l-0.015-0.236c-22.135-7.070-40.402-21.007-52.768-39.266l-0.224-0.35h-223.232c-17.108 0-30.976-13.868-30.976-30.976s13.868-30.976 30.976-30.976h1.472l-113.664-184.384c-1.856-2.999-2.956-6.635-2.956-10.528 0-7.135 3.695-13.408 9.277-17.008l0.080-0.048c2.942-1.926 6.546-3.072 10.418-3.072 0.005 0 0.010 0 0.015 0h-0.001c6.891 0.096 12.894 3.809 16.208 9.321l0.048 0.087 98.56 160 98.56-160c3.396-5.717 9.539-9.489 16.563-9.489 3.883 0 7.497 1.153 10.518 3.134l-0.073-0.045c5.661 3.648 9.356 9.92 9.356 17.056 0 3.893-1.1 7.53-3.006 10.615l0.050-0.087-113.6 184.192h268.032v-595.776h-63.68c-38.197-0.432-68.995-31.497-68.995-69.756 0-0.226 0.001-0.453 0.003-0.679v0.035h343.616c0.002 0.191 0.003 0.418 0.003 0.644 0 38.258-30.798 69.324-68.954 69.755h-0.041zM298.496 462.144h-288c-5.805-0.036-10.496-4.75-10.496-10.56 0-0.023 0-0.045 0-0.068v0.003c-0.004-0.422-0.006-0.92-0.006-1.419 0-85.665 68.922-155.233 154.34-156.276l0.099-0.001c85.544 1.009 154.502 70.59 154.502 156.278 0 0.499-0.002 0.997-0.007 1.494l0.001-0.076c0 0.019 0 0.042 0 0.065 0 5.787-4.655 10.487-10.425 10.559h-0.007zM949.568 462.144h-288c-5.777-0.072-10.432-4.772-10.432-10.559 0-0.023 0-0.046 0-0.068v0.003c-0.020-0.936-0.032-2.039-0.032-3.144 0-85.326 69.17-154.496 154.496-154.496s154.496 69.17 154.496 154.496c0 1.106-0.012 2.208-0.035 3.308l0.003-0.164c0 0.019 0 0.042 0 0.064 0 5.81-4.692 10.524-10.493 10.56h-0.003z" />
<glyph unicode="&#xe915;" glyph-name="paper_red" horiz-adv-x="1088" d="M915.2 750.4v134.4h-940.8v-739.2c-0.019-0.828-0.029-1.803-0.029-2.781 0-72.707 58.941-131.648 131.648-131.648 0.978 0 1.953 0.011 2.926 0.032l-0.145-0.002h840s100.8 2.112 100.8 134.4v604.8h-134.4zM108.8 78.4c-0.424-0.010-0.923-0.015-1.423-0.015-36.336 0-65.792 29.456-65.792 65.792 0 0.501 0.006 1 0.017 1.498l-0.001-0.074v672h806.4v-672c-0.070-1.376-0.109-2.988-0.109-4.609 0-23.909 8.631-45.802 22.948-62.734l-0.118 0.143h-761.92zM108.8 683.2h672v-67.2h-672v67.2zM478.4 280h235.2v-67.2h-235.2v67.2zM478.4 414.4h302.4v-67.2h-302.4v67.2zM478.4 548.8h302.4v-67.2h-302.4v67.2zM108.8 548.8h302.4v-336h-302.4v336z" />
<glyph unicode="&#xe916;" glyph-name="paper_dark" d="M861.365 702.494v126.494h-885.459v-695.718c-0.018-0.779-0.028-1.697-0.028-2.618 0-68.43 55.474-123.904 123.904-123.904 0.92 0 1.839 0.010 2.754 0.030l-0.136-0.002h790.588s94.871 1.988 94.871 126.494v569.224h-126.494zM102.4 70.024c-0.399-0.009-0.869-0.014-1.34-0.014-34.199 0-61.922 27.723-61.922 61.922 0 0.471 0.005 0.941 0.016 1.409l-0.001-0.070v632.471h758.965v-632.471c-0.066-1.295-0.103-2.812-0.103-4.338 0-22.503 8.123-43.108 21.598-59.044l-0.111 0.135h-717.101zM102.4 639.247h632.471v-63.247h-632.471v63.247zM450.259 259.765h221.365v-63.247h-221.365v63.247zM450.259 386.259h284.612v-63.247h-284.612v63.247zM450.259 512.753h284.612v-63.247h-284.612v63.247zM102.4 512.753h284.612v-316.235h-284.612v316.235z" />
<glyph unicode="&#xe917;" glyph-name="notification_red" horiz-adv-x="853" d="M849.294 96.654l-73.33 121.97c-32.479 53.201-51.71 117.567-51.712 186.424v0 106.894c-0.264 134.366-89.164 247.897-211.33 285.253l-2.117 0.557v76.516c0 47.128-38.205 85.333-85.333 85.333s-85.333-38.205-85.333-85.333v0-76.516c-124.307-37.893-213.232-151.43-213.504-285.778v-106.869c-0.022-68.838-19.25-133.181-52.616-187.967l0.904 1.599-73.273-122.027c-1.884-3.122-2.999-6.892-2.999-10.923 0-11.768 9.503-21.316 21.254-21.39h811.072c11.779 0.004 21.327 9.554 21.327 21.333 0 4.032-1.118 7.802-3.062 11.018l0.054-0.096zM290.987 21.732c24.341-50.811 75.36-85.276 134.428-85.276s110.087 34.466 134.042 84.384l0.386 0.893h-268.857z" />
<glyph unicode="&#xe918;" glyph-name="folder_red" horiz-adv-x="1280" d="M345.429 459.947c38.941 20.618 84.971 33.127 133.828 34.128l0.316 0.005h566.613v116.053c0.015 0.807 0.023 1.759 0.023 2.713 0 43.452-17.148 82.9-45.045 111.944l0.052-0.054c-26.224 29.431-64.234 47.876-106.551 47.876-0.371 0-0.741-0.001-1.111-0.004h-370.375v23.637c0.011 0.703 0.017 1.533 0.017 2.364 0 43.623-17.282 83.209-45.374 112.286l0.045-0.046c-26.224 29.43-64.233 47.874-106.549 47.874-0.251 0-0.502-0.001-0.753-0.002h-217.817c-0.313 0.002-0.683 0.004-1.054 0.004-42.317 0-80.327-18.445-106.427-47.734l-0.124-0.142c-27.946-29.010-45.161-68.527-45.161-112.065 0-0.892 0.007-1.783 0.022-2.672l-0.002 0.134v-696.405c0-1.963 0-4.949 0-9.045s0-7.168 0-9.045l3.413 4.352 229.547 287.317c30.267 36.389 67.81 65.628 110.514 85.702l1.955 0.826zM1261.824 392.107c-11.535 5.984-25.182 9.493-39.65 9.493-0.671 0-1.34-0.008-2.007-0.023l0.099 0.002h-740.693c-35.895-1.092-69.372-10.437-98.917-26.189l1.21 0.589c-32.591-15.089-59.998-36.294-81.793-62.354l-0.298-0.366-228.779-287.488c-12.023-12.534-19.843-29.181-21.149-47.628l-0.014-0.244c-0.038-0.591-0.060-1.282-0.060-1.978 0-12.726 7.312-23.744 17.963-29.083l0.188-0.085c11.538-5.979 25.188-9.486 39.657-9.486 0.548 0 1.095 0.005 1.641 0.015l-0.082-0.001h740.949c35.895 1.102 69.371 10.446 98.919 26.19l-1.213-0.59c32.591 15.089 59.998 36.294 81.793 62.354l0.298 0.366 228.864 287.317c12.088 12.566 19.945 29.279 21.235 47.802l0.013 0.241c0.039 0.595 0.061 1.29 0.061 1.989 0 12.745-7.353 23.773-18.048 29.072l-0.189 0.085z" />
<glyph unicode="&#xe919;" glyph-name="folder_dark" d="M271.428 457.148c31.877 15.901 69.325 25.56 108.941 26.414l0.286 0.005h463.121v88.747c0.006 0.437 0.009 0.953 0.009 1.47 0 33.913-14.074 64.538-36.7 86.354l-0.036 0.035c-21.84 22.662-52.457 36.737-86.361 36.737-0.527 0-1.053-0.003-1.578-0.010l0.080 0.001h-302.763v18.091c0.009 0.544 0.014 1.185 0.014 1.828 0 33.806-13.994 64.344-36.504 86.136l-0.032 0.031c-21.84 22.582-52.412 36.602-86.259 36.602-0.563 0-1.124-0.004-1.685-0.012l0.085 0.001h-177.971c-0.504 0.008-1.1 0.012-1.696 0.012-33.838 0-64.402-14.020-86.199-36.569l-0.033-0.034c-22.623-21.835-36.671-52.426-36.671-86.297 0-0.597 0.004-1.193 0.013-1.788l-0.001 0.090v-533.982q0-2.253 0-6.827t0-6.827l2.799 3.345 187.938 220.023c24.795 28.054 55.21 50.53 89.55 65.768l1.654 0.655zM1019.767 405.197c-9.422 4.576-20.495 7.251-32.193 7.251-0.514 0-1.028-0.005-1.54-0.015l0.077 0.001h-605.116c-29.201-0.834-56.532-8.028-80.918-20.234l1.115 0.505c-26.426-11.322-48.788-27.512-66.887-47.616l-0.151-0.17-186.846-220.638c-9.725-9.421-16.115-22.234-17.259-36.526l-0.013-0.201c-0.021-0.378-0.032-0.82-0.032-1.266 0-10.054 6.004-18.705 14.621-22.565l0.157-0.063c9.422-4.576 20.495-7.251 32.193-7.251 0.514 0 1.028 0.005 1.54 0.015l-0.077-0.001h605.116c29.201 0.839 56.532 8.032 80.92 20.235l-1.116-0.506c26.426 11.322 48.788 27.512 66.887 47.616l0.151 0.17 186.778 220.638c9.705 9.426 16.073 22.241 17.191 36.53l0.012 0.198c0.023 0.396 0.036 0.859 0.036 1.325 0 10.002-5.943 18.617-14.49 22.506l-0.155 0.063z" />
<glyph unicode="&#xe91a;" glyph-name="enter_red" horiz-adv-x="1182" d="M590.769 960c-327.843-7.079-590.9-274.518-590.9-603.398 0-4.423 0.048-8.834 0.142-13.235l-0.011 0.657c-0.003-0.675-0.004-1.474-0.004-2.274 0-147.041 50.425-282.305 134.927-389.442l-1.015 1.335c13.076 107.678 116.263 198.814 261.041 242.294 49.743-50.941 119.107-82.532 195.85-82.532 74.907 0 142.784 30.098 192.198 78.859l-0.030-0.030c145.959-47.262 246.942-143.36 250.25-255.527 92.236 108.672 148.325 250.545 148.325 405.517 0 0.632-0.001 1.264-0.003 1.896v-0.097c0.084 3.744 0.131 8.155 0.131 12.578 0 328.88-263.058 596.319-590.242 603.386l-0.658 0.011zM590.769 186.171c-38.747 0.204-74.892 11.165-105.652 30.046l0.889-0.507c-77.77 50.95-128.427 137.687-128.427 236.255 0 2.788 0.041 5.567 0.121 8.336l-0.009-0.406c-0.403 5.382-0.633 11.657-0.633 17.986 0 133.538 102.246 243.196 232.722 254.956l0.989 0.072c131.48-11.816 233.744-121.481 233.744-255.031 0-6.495-0.242-12.933-0.717-19.306l0.051 0.85c0.072-2.374 0.113-5.167 0.113-7.97 0-99.882-52.206-187.571-130.82-237.267l-1.153-0.681c-29.018-17.143-63.903-27.354-101.157-27.569h-0.061z" />
<glyph unicode="&#xe91b;" glyph-name="leave_red" horiz-adv-x="960" d="M956.8 535.232c-2.157 4.979-5.092 9.227-8.7 12.796l-0.004 0.004-120 120.128c-7.312 7.751-17.653 12.577-29.12 12.577-22.091 0-40-17.909-40-40 0-11.452 4.813-21.78 12.526-29.072l0.019-0.018 51.776-51.712h-223.552c-0.477 0.020-1.037 0.032-1.6 0.032-22.091 0-40-17.909-40-40s17.909-40 40-40c0.563 0 1.122 0.012 1.679 0.035l-0.080-0.003h223.488l-51.712-51.712c-6.738-7.143-10.88-16.799-10.88-27.423 0-22.091 17.909-40 40-40 10.639 0 20.309 4.154 27.474 10.928l-0.019-0.018 120 119.872c3.63 3.562 6.568 7.813 8.606 12.544l0.098 0.256c1.951 4.546 3.085 9.836 3.085 15.392s-1.134 10.846-3.184 15.653l0.099-0.261zM679.808 400.064c-22.009-0.109-39.808-17.976-39.808-40 0 0 0 0 0 0v0-200.064h-160v640c0 18.1-12.022 33.392-28.517 38.327l-0.283 0.073-138.944 41.344h327.744v-199.872c0-22.091 17.909-40 40-40s40 17.909 40 40v0 239.872c0.001 0.076 0.001 0.166 0.001 0.256 0 22.091-17.909 40-40 40-0.068 0-0.136 0-0.203-0.001h-639.99c-1.721-0.32-3.183-0.697-4.607-1.16l0.255 0.072c-6.364-0.689-12.124-2.79-17.119-5.983l0.159 0.095c-0.896-0.576-1.984-0.576-2.816-1.216s-0.448-0.704-0.768-0.96c-4.369-3.458-7.937-7.72-10.52-12.585l-0.104-0.215c-0.346-0.823-0.717-1.886-1.032-2.974l-0.056-0.226c-1.364-2.692-2.469-5.816-3.156-9.094l-0.044-0.25c-0.038-0.517-0.060-1.12-0.060-1.728s0.022-1.211 0.064-1.808l-0.005 0.080c0-0.832-0.448-1.536-0.448-2.304v-799.488c0-0.008 0-0.018 0-0.028 0-19.247 13.616-35.314 31.741-39.094l0.259-0.045 400.128-79.936c2.37-0.638 5.114-1.052 7.937-1.15l0.063-0.002c0.095-0.001 0.208-0.001 0.321-0.001 22.091 0 40 17.909 40 40 0 0.090 0 0.181-0.001 0.271v-0.014 40h200.064c22.091 0 40 17.909 40 40v0 239.808c0 0 0 0.001 0 0.001 0 22.091-17.909 40-40 40-0.090 0-0.18 0-0.27-0.001h0.014z" />
<glyph unicode="&#xe91c;" glyph-name="leave_dark" d="M988.8 535.232c-2.157 4.979-5.092 9.227-8.7 12.796l-0.004 0.004-120 120.128c-7.312 7.751-17.653 12.577-29.12 12.577-22.091 0-40-17.909-40-40 0-11.452 4.813-21.78 12.526-29.072l0.019-0.018 51.776-51.712h-223.552c-0.477 0.020-1.037 0.032-1.6 0.032-22.091 0-40-17.909-40-40s17.909-40 40-40c0.563 0 1.122 0.012 1.679 0.035l-0.080-0.003h223.488l-51.712-51.712c-6.738-7.143-10.88-16.799-10.88-27.423 0-22.091 17.909-40 40-40 10.639 0 20.309 4.154 27.474 10.928l-0.019-0.018 120 119.872c3.63 3.562 6.568 7.813 8.606 12.544l0.098 0.256c1.951 4.546 3.085 9.836 3.085 15.392s-1.134 10.846-3.184 15.653l0.099-0.261zM711.808 400.064c-22.009-0.109-39.808-17.976-39.808-40 0 0 0 0 0 0v0-200.064h-160v640c0 18.1-12.022 33.392-28.517 38.327l-0.283 0.073-138.944 41.344h327.744v-199.872c0-22.091 17.909-40 40-40s40 17.909 40 40v0 239.872c0.001 0.076 0.001 0.166 0.001 0.256 0 22.091-17.909 40-40 40-0.068 0-0.136 0-0.203-0.001h-639.99c-1.721-0.32-3.183-0.697-4.607-1.16l0.255 0.072c-6.364-0.689-12.124-2.79-17.119-5.983l0.159 0.095c-0.896-0.576-1.984-0.576-2.816-1.216s-0.448-0.704-0.768-0.96c-4.369-3.458-7.937-7.72-10.52-12.585l-0.104-0.215c-0.346-0.823-0.717-1.886-1.032-2.974l-0.056-0.226c-1.364-2.692-2.469-5.816-3.156-9.094l-0.044-0.25c-0.038-0.517-0.060-1.12-0.060-1.728s0.022-1.211 0.064-1.808l-0.005 0.080c0-0.832-0.448-1.536-0.448-2.304v-799.488c0-0.008 0-0.018 0-0.028 0-19.247 13.616-35.314 31.741-39.094l0.259-0.045 400.128-79.936c2.37-0.638 5.114-1.052 7.937-1.15l0.063-0.002c0.095-0.001 0.208-0.001 0.321-0.001 22.091 0 40 17.909 40 40 0 0.090 0 0.181-0.001 0.271v-0.014 40h200.064c22.091 0 40 17.909 40 40v0 239.808c0 0 0 0.001 0 0.001 0 22.091-17.909 40-40 40-0.090 0-0.18 0-0.27-0.001h0.014z" />
<glyph unicode="&#xe91d;" d="M964.375 448c0-249.84-202.535-452.375-452.375-452.375s-452.375 202.535-452.375 452.375c0 249.84 202.535 452.375 452.375 452.375s452.375-202.535 452.375-452.375z" />
<glyph unicode="&#xe91e;" d="M268.335 449.536c-4.22 4.041-6.842 9.72-6.842 16.012s2.623 11.971 6.834 16.004l31.985 31.985c4.033 4.217 9.705 6.839 15.988 6.839s11.955-2.621 15.981-6.83l2.289-2.289 125.673-134.982c2.015-2.122 4.856-3.442 8.006-3.442s5.991 1.32 8.001 3.437l0.005 0.005 306.083 317.58h2.281c4.027 4.229 9.701 6.86 15.988 6.86s11.961-2.63 15.98-6.851l0.009-0.009 31.977-31.744c4.217-4.033 6.839-9.705 6.839-15.988s-2.621-11.955-6.83-15.981l-0.008-0.008-365.475-379.299c-4.021-4.242-9.697-6.881-15.988-6.881s-11.967 2.639-15.979 6.871l-0.009 0.010-178.223 191.907z" />
<glyph unicode="&#xe920;" glyph-name="btn-close" d="M968.59 848.555l-401.749-401.806 401.749-401.806c14.677-14.62 14.677-38.457 0-53.191-7.339-7.339-17.010-10.98-26.624-10.98s-19.285 3.641-26.624 10.98l-401.749 401.749-401.749-401.749c-7.339-7.339-16.953-10.98-26.567-10.98-9.671 0-19.285 3.641-26.624 10.98-14.734 14.734-14.734 38.571 0 53.191l401.749 401.806-401.749 401.806c-14.734 14.62-14.734 38.514 0 53.134 14.677 14.791 38.514 14.791 53.191 0l401.749-401.749 401.749 401.749c14.677 14.791 38.514 14.791 53.248 0 14.677-14.62 14.677-38.514 0-53.134z" />
</font>
</defs>
</svg>
