<svg xmlns="http://www.w3.org/2000/svg" width="15" height="12" viewBox="0 0 15 12">
  <defs>
    <style>
      .cls-1 {
        fill: #b83539;
        fill-rule: evenodd;
      }
    </style>
  </defs>
  <path id="Forma_1" data-name="Forma 1" class="cls-1" d="M4.048,5.86a3.568,3.568,0,0,1,1.572-.4h6.64V4.1a1.894,1.894,0,0,0-.527-1.343,1.67,1.67,0,0,0-1.261-.561H6.131V1.919A1.894,1.894,0,0,0,5.6.576,1.67,1.67,0,0,0,4.343.015H1.79A1.67,1.67,0,0,0,.529.576,1.894,1.894,0,0,0,0,1.919v8.161c0,0.023,0,.058,0,0.106s0,0.084,0,.106l0.04-.051,2.69-3.367A3.749,3.749,0,0,1,4.048,5.86ZM14.787,6.655A1.026,1.026,0,0,0,14.3,6.544H5.62a2.633,2.633,0,0,0-1.145.3,2.72,2.72,0,0,0-.962.735L0.832,10.948a0.9,0.9,0,0,0-.248.561,0.381,0.381,0,0,0,.212.365,1.027,1.027,0,0,0,.483.111H9.962a2.636,2.636,0,0,0,1.145-.3,2.72,2.72,0,0,0,.962-0.735l2.682-3.367A0.9,0.9,0,0,0,15,7.02,0.38,0.38,0,0,0,14.787,6.655Z"/>
</svg>
