<svg xmlns="http://www.w3.org/2000/svg" width="15" height="13" viewBox="0 0 15 13">
  <defs>
    <style>
      .cls-1 {
        fill: #b83539;
        fill-rule: evenodd;
      }
    </style>
  </defs>
  <path id="Forma_1" data-name="Forma 1" class="cls-1" d="M7.5,0A7.662,7.662,0,0,0,0,7.82a7.99,7.99,0,0,0,1.7,4.956C1.866,11.409,3.176,10.252,5.014,9.7a3.474,3.474,0,0,0,4.926.047c1.853,0.6,3.135,1.82,3.177,3.244A7.979,7.979,0,0,0,15,7.82,7.662,7.662,0,0,0,7.5,0Zm0,9.824a2.593,2.593,0,0,1-1.33-.375,3.574,3.574,0,0,1-1.629-3.1A3.25,3.25,0,0,1,7.5,2.883a3.25,3.25,0,0,1,2.959,3.472A3.561,3.561,0,0,1,8.785,9.477,2.587,2.587,0,0,1,7.5,9.827Z"/>
</svg>
