<svg xmlns="http://www.w3.org/2000/svg" width="15" height="13" viewBox="0 0 15 13">
  <defs>
    <style>
      .cls-1 {
        fill: #b83539;
        fill-rule: evenodd;
      }
    </style>
  </defs>
  <path id="Forma_1" data-name="Forma 1" class="cls-1" d="M9.4,8.94a0.55,0.55,0,0,1-.542.542H6.144A0.55,0.55,0,0,1,5.6,8.94V7.585H-0.092v4.067a1.305,1.305,0,0,0,.4.957,1.306,1.306,0,0,0,.958.4H13.736a1.359,1.359,0,0,0,1.356-1.356V7.585H9.4V8.94h0ZM6.415,7.585H8.585V8.669H6.415V7.585ZM14.694,2.56a1.306,1.306,0,0,0-.958-0.4H10.754V0.806A0.784,0.784,0,0,0,10.516.23,0.784,0.784,0,0,0,9.94-.007H5.06A0.785,0.785,0,0,0,4.484.23a0.784,0.784,0,0,0-.237.576V2.162H1.264a1.306,1.306,0,0,0-.958.4,1.305,1.305,0,0,0-.4.957V6.771H15.092V3.517A1.305,1.305,0,0,0,14.694,2.56Zm-5.025-.4H5.331V1.077H9.669V2.162Z"/>
</svg>
