<svg xmlns="http://www.w3.org/2000/svg" width="16" height="13" viewBox="0 0 16 13">
  <defs>
    <style>
      .cls-1 {
        fill: #b83539;
        fill-rule: evenodd;
      }
    </style>
  </defs>
  <path id="Forma_1" data-name="Forma 1" class="cls-1" d="M9.106,11.9H8.112V2.591H12.3L10.528,5.468a0.316,0.316,0,0,0,.1.431,0.3,0.3,0,0,0,.163.048A0.3,0.3,0,0,0,11.046,5.8l1.54-2.5,1.54,2.5a0.3,0.3,0,0,0,.422.1,0.316,0.316,0,0,0,.1-0.431L12.868,2.591H12.89a0.484,0.484,0,0,0,0-.968H9.4A1.556,1.556,0,0,0,8.575,1a1.078,1.078,0,0,0-2.15,0,1.556,1.556,0,0,0-.828.619H2.109a0.484,0.484,0,0,0,0,.968H2.132L0.356,5.468a0.316,0.316,0,0,0,.1.431,0.3,0.3,0,0,0,.163.048A0.3,0.3,0,0,0,.873,5.8l1.54-2.5,1.54,2.5a0.3,0.3,0,0,0,.422.1,0.316,0.316,0,0,0,.1-0.431L2.7,2.591H6.888V11.9H5.893A1.09,1.09,0,0,0,4.815,13h5.369A1.09,1.09,0,0,0,9.106,11.9ZM4.664,6.279h-4.5A0.165,0.165,0,0,0,0,6.445,2.442,2.442,0,0,0,2.413,8.909,2.442,2.442,0,0,0,4.827,6.445,0.165,0.165,0,0,0,4.664,6.279Zm10.173,0h-4.5a0.165,0.165,0,0,0-.163.166,2.414,2.414,0,1,0,4.827,0A0.165,0.165,0,0,0,14.837,6.279Z"/>
</svg>
