<svg xmlns="http://www.w3.org/2000/svg" width="17" height="16" viewBox="0 0 17 16">
  <defs>
    <style>
      .cls-1 {
        fill: #b83539;
        fill-rule: evenodd;
      }
    </style>
  </defs>
  <path id="Forma_1" data-name="Forma 1" class="cls-1" d="M14.3,3.275v-2.1H-0.4v11.55a2.057,2.057,0,0,0,2.1,2.1H14.825s1.575-.033,1.575-2.1V3.275H14.3ZM1.7,13.775a1.028,1.028,0,0,1-1.05-1.05V2.225h12.6v10.5a1.519,1.519,0,0,0,.355,1.05H1.7Zm0-9.45H12.2v1.05H1.7V4.325Zm5.775,6.3H11.15v1.05H7.475v-1.05Zm0-2.1H12.2v1.05H7.475V8.525Zm0-2.1H12.2v1.05H7.475V6.425Zm-5.775,0H6.425v5.25H1.7V6.425Z"/>
</svg>
